<?xml version="1.0"?>
<svg xmlns="http://www.w3.org/2000/svg" height="512px" viewBox="-45 0 489 489.06133" width="512px" class=""><g transform="matrix(1, 0, 0, 1, 0, 0)"><path d="m199.464844 0c-66.347656 0-125.988282 31.238281-163.621094 85.699219-37.464844 54.21875-46.125 122.832031-23.191406 183.484375 6.011718 16.222656 15.625 32.054687 28.546875 47.015625l139.964843 164.40625c4.566407 5.367187 11.257813 8.457031 18.300782 8.457031 7.042968 0 13.734375-3.089844 18.300781-8.457031l139.957031-164.394531c13.476563-15.609376 22.820313-31 28.5625-47.046876 22.917969-60.683593 14.25-129.265624-23.199218-183.460937-37.632813-54.464844-97.269532-85.703125-163.621094-85.703125zm173.699218 264.277344c-.011718.039062-.027343.078125-.042968.121094-5.148438 14.417968-13.660156 28.378906-26.015625 42.6875l-.03125.039062-139.96875 164.40625c-1.90625 2.238281-4.699219 3.527344-7.640625 3.527344s-5.734375-1.289063-7.636719-3.527344l-140-164.445312c-11.855469-13.726563-20.617187-28.117188-26.0625-42.8125-21.324219-56.398438-13.253906-120.179688 21.601563-170.613282 34.976562-50.625 90.414062-79.660156 152.097656-79.660156s117.125 29.035156 152.101562 79.660156c34.851563 50.433594 42.925782 114.214844 21.597656 170.617188zm0 0" data-original="#000000" class="active-path" data-old_color="#000000" fill="#E3E9ED"/><path d="m199.464844 41.503906c-87.054688 0-157.878906 70.824219-157.878906 157.882813 0 87.054687 70.824218 157.878906 157.878906 157.878906 87.054687 0 157.882812-70.824219 157.882812-157.878906 0-87.058594-70.828125-157.882813-157.882812-157.882813zm0 301.761719c-79.335938 0-143.878906-64.542969-143.878906-143.878906 0-79.339844 64.542968-143.882813 143.878906-143.882813 79.335937 0 143.882812 64.546875 143.882812 143.882813 0 79.332031-64.546875 143.878906-143.882812 143.878906zm0 0" data-original="#000000" class="active-path" data-old_color="#000000" fill="#E3E9ED"/><path d="m295.640625 133.53125h-44.175781v-39.046875c.039062-1.832031-.660156-3.605469-1.941406-4.914063-1.285157-1.308593-3.042969-2.042968-4.875-2.039062h-83.867188c-3.921875-.046875-7.164062 3.035156-7.316406 6.953125v62.046875h-25.742188c-3.867187 0-7.257812 2.828125-7.257812 6.699219v20.300781h-17.175782c-3.871093.105469-6.925781 3.328125-6.824218 7.199219v81.851562c-.035156 1.832031.667968 3.601563 1.949218 4.910157 1.285157 1.304687 3.042969 2.042968 4.875 2.039062h192.351563c1.835937.003906 3.59375-.734375 4.875-2.042969 1.285156-1.308593 1.988281-3.078125 1.949219-4.914062v-132.324219c.03125-1.808594-.683594-3.550781-1.972656-4.820312-1.289063-1.269532-3.042969-1.957032-4.851563-1.898438zm-58.175781-32v164h-70v-101.363281c0-.308594.070312-.621094.070312-.941407 0-.320312-.070312-.628906-.070312-.9375v-60.757812zm-127 96h17.257812c1.808594.03125 3.550782-.675781 4.824219-1.957031 1.273437-1.285157 1.96875-3.035157 1.917969-4.84375v-20.199219h19v95h-43zm178 68h-37v-118h37zm0 0" data-original="#000000" class="active-path" data-old_color="#000000" fill="#E3E9ED"/><path d="m264.84375 215.53125h8.253906c3.867188 0 7-3.136719 7-7 0-3.867188-3.132812-7-7-7h-8.253906c-3.867188 0-7 3.132812-7 7 0 3.863281 3.132812 7 7 7zm0 0" data-original="#000000" class="active-path" data-old_color="#000000" fill="#E3E9ED"/><path d="m264.84375 235.53125h8.253906c3.867188 0 7-3.136719 7-7 0-3.867188-3.132812-7-7-7h-8.253906c-3.867188 0-7 3.132812-7 7 0 3.863281 3.132812 7 7 7zm0 0" data-original="#000000" class="active-path" data-old_color="#000000" fill="#E3E9ED"/><path d="m273.097656 240.53125h-8.253906c-3.867188 0-7 3.132812-7 7 0 3.863281 3.132812 7 7 7h8.253906c3.867188 0 7-3.136719 7-7 0-3.867188-3.132812-7-7-7zm0 0" data-original="#000000" class="active-path" data-old_color="#000000" fill="#E3E9ED"/><path d="m222.464844 182.273438c3.867187 0 7-3.132813 7-7v-12.675782c0-3.867187-3.132813-7-7-7-3.867188 0-7 3.132813-7 7v12.675782c0 3.867187 3.132812 7 7 7zm0 0" data-original="#000000" class="active-path" data-old_color="#000000" fill="#E3E9ED"/><path d="m202.464844 182.273438c3.867187 0 7-3.132813 7-7v-12.675782c0-3.867187-3.132813-7-7-7-3.867188 0-7 3.132813-7 7v12.675782c0 3.867187 3.132812 7 7 7zm0 0" data-original="#000000" class="active-path" data-old_color="#000000" fill="#E3E9ED"/><path d="m183.464844 182.273438c3.867187 0 7-3.132813 7-7v-12.675782c0-3.867187-3.132813-7-7-7-3.867188 0-7 3.132813-7 7v12.675782c0 3.867187 3.132812 7 7 7zm0 0" data-original="#000000" class="active-path" data-old_color="#000000" fill="#E3E9ED"/><path d="m264.84375 175.53125h8.253906c3.867188 0 7-3.136719 7-7 0-3.867188-3.132812-7-7-7h-8.253906c-3.867188 0-7 3.132812-7 7 0 3.863281 3.132812 7 7 7zm0 0" data-original="#000000" class="active-path" data-old_color="#000000" fill="#E3E9ED"/><path d="m264.84375 195.53125h8.253906c3.867188 0 7-3.136719 7-7 0-3.867188-3.132812-7-7-7h-8.253906c-3.867188 0-7 3.132812-7 7 0 3.863281 3.132812 7 7 7zm0 0" data-original="#000000" class="active-path" data-old_color="#000000" fill="#E3E9ED"/><path d="m222.464844 148.761719c3.867187 0 7-3.132813 7-7v-12.675781c0-3.867188-3.132813-7-7-7-3.867188 0-7 3.132812-7 7v12.675781c0 3.867187 3.132812 7 7 7zm0 0" data-original="#000000" class="active-path" data-old_color="#000000" fill="#E3E9ED"/><path d="m202.464844 148.761719c3.867187 0 7-3.132813 7-7v-12.675781c0-3.867188-3.132813-7-7-7-3.867188 0-7 3.132812-7 7v12.675781c0 3.867187 3.132812 7 7 7zm0 0" data-original="#000000" class="active-path" data-old_color="#000000" fill="#E3E9ED"/><path d="m183.464844 148.761719c3.867187 0 7-3.132813 7-7v-12.675781c0-3.867188-3.132813-7-7-7-3.867188 0-7 3.132812-7 7v12.675781c0 3.867187 3.132812 7 7 7zm0 0" data-original="#000000" class="active-path" data-old_color="#000000" fill="#E3E9ED"/><path d="m222.464844 215.785156c3.867187 0 7-3.132812 7-7v-12.675781c0-3.867187-3.132813-7-7-7-3.867188 0-7 3.132813-7 7v12.675781c0 3.867188 3.132812 7 7 7zm0 0" data-original="#000000" class="active-path" data-old_color="#000000" fill="#E3E9ED"/><path d="m202.464844 215.785156c3.867187 0 7-3.132812 7-7v-12.675781c0-3.867187-3.132813-7-7-7-3.867188 0-7 3.132813-7 7v12.675781c0 3.867188 3.132812 7 7 7zm0 0" data-original="#000000" class="active-path" data-old_color="#000000" fill="#E3E9ED"/><path d="m183.464844 215.785156c3.867187 0 7-3.132812 7-7v-12.675781c0-3.867187-3.132813-7-7-7-3.867188 0-7 3.132813-7 7v12.675781c0 3.867188 3.132812 7 7 7zm0 0" data-original="#000000" class="active-path" data-old_color="#000000" fill="#E3E9ED"/><path d="m222.464844 249.300781c3.867187 0 7-3.136719 7-7v-12.679687c0-3.863282-3.132813-7-7-7-3.867188 0-7 3.136718-7 7v12.679687c0 3.863281 3.132812 7 7 7zm0 0" data-original="#000000" class="active-path" data-old_color="#000000" fill="#E3E9ED"/><path d="m202.464844 249.300781c3.867187 0 7-3.136719 7-7v-12.679687c0-3.863282-3.132813-7-7-7-3.867188 0-7 3.136718-7 7v12.679687c0 3.863281 3.132812 7 7 7zm0 0" data-original="#000000" class="active-path" data-old_color="#000000" fill="#E3E9ED"/><path d="m183.464844 249.300781c3.867187 0 7-3.136719 7-7v-12.679687c0-3.863282-3.132813-7-7-7-3.867188 0-7 3.136718-7 7v12.679687c0 3.863281 3.132812 7 7 7zm0 0" data-original="#000000" class="active-path" data-old_color="#000000" fill="#E3E9ED"/></g> </svg>
